<?xml version="1.0" encoding="UTF-8" ?>
<!DOCTYPE svg PUBLIC "-//W3C//DTD SVG 1.1//EN" "http://www.w3.org/Graphics/SVG/1.1/DTD/svg11.dtd">
<svg width="970pt" height="1031pt" viewBox="0 0 970 1031" version="1.1" xmlns="http://www.w3.org/2000/svg">
<!--
<path fill="none" d=" M 0.00 0.00 L 970.00 0.00 L 970.00 173.70 C 938.18 162.14 906.23 150.97 874.31 139.69 C 831.14 124.09 787.74 109.10 744.56 93.51 C 663.73 64.98 583.03 36.09 502.19 7.56 C 496.44 5.46 490.58 3.65 485.00 1.10 C 477.64 4.38 469.91 6.67 462.38 9.50 C 430.89 20.51 399.49 31.75 368.08 42.97 C 332.59 55.35 297.26 68.15 261.82 80.67 C 237.38 89.20 213.02 97.95 188.66 106.68 C 161.58 116.25 134.46 125.73 107.44 135.47 C 71.67 148.38 35.61 160.53 0.00 173.85 L 0.00 0.00 Z" />
-->
<path fill="#aaaaaa" d=" M 462.38 9.50 C 469.91 6.67 477.64 4.38 485.00 1.10 C 490.58 3.65 496.44 5.46 502.19 7.56 C 583.03 36.09 663.73 64.98 744.56 93.51 C 787.74 109.10 831.14 124.09 874.31 139.69 C 906.23 150.97 938.18 162.14 970.00 173.70 L 970.00 176.26 C 967.47 182.13 967.23 188.58 966.41 194.82 C 958.59 258.49 951.13 322.20 943.37 385.88 C 929.27 500.25 915.83 614.71 901.77 729.09 C 898.92 752.61 895.98 776.12 893.27 799.65 C 757.18 874.33 621.15 949.12 485.00 1023.68 C 348.85 949.11 212.81 874.34 76.73 799.64 C 65.76 707.75 54.31 615.92 43.44 524.02 C 34.09 446.40 24.43 368.82 15.24 291.18 C 11.04 256.14 6.81 221.10 2.53 186.06 C 2.11 182.51 1.12 179.06 0.00 175.68 L 0.00 173.85 C 35.61 160.53 71.67 148.38 107.44 135.47 C 134.46 125.73 161.58 116.25 188.66 106.68 C 213.02 97.95 237.38 89.20 261.82 80.67 C 297.26 68.15 332.59 55.35 368.08 42.97 C 399.49 31.75 430.89 20.51 462.38 9.50 Z" />
<path fill="#e52a3a" d=" M 429.38 71.42 C 447.87 64.62 466.58 58.42 484.95 51.31 C 485.06 148.11 484.98 244.92 484.98 341.72 C 439.63 341.73 394.28 341.69 348.94 341.74 C 342.35 341.50 336.36 347.34 336.60 353.95 C 336.58 374.97 336.56 395.99 336.61 417.00 C 336.47 421.87 339.80 426.40 344.22 428.22 C 348.01 429.49 352.07 429.06 356.00 429.12 C 399.01 429.09 442.01 429.12 485.01 429.11 C 484.99 461.47 484.92 493.82 485.02 526.18 C 439.68 526.20 394.33 526.15 348.98 526.21 C 342.13 525.76 336.08 532.21 336.57 538.96 C 336.60 559.66 336.58 580.37 336.59 601.07 C 336.23 607.76 342.22 613.91 348.94 613.55 C 394.30 613.56 439.66 613.55 485.02 613.55 C 484.95 732.64 485.02 851.73 485.00 970.82 C 365.95 904.95 246.89 839.09 127.80 773.28 C 116.21 679.68 104.70 586.06 92.84 492.49 C 83.38 416.66 74.11 340.80 64.51 264.99 C 62.12 244.61 59.04 224.30 57.10 203.88 C 97.24 189.30 137.62 175.40 177.77 160.85 C 261.68 131.14 345.48 101.14 429.38 71.42 Z" />
<path fill="#b82a35" d=" M 484.95 51.31 C 526.20 66.55 567.77 80.95 609.19 95.73 C 651.87 111.14 694.74 126.01 737.42 141.44 C 776.65 155.17 815.73 169.36 854.93 183.20 C 874.30 189.99 893.65 196.87 912.93 203.92 C 911.61 218.62 909.36 233.23 907.64 247.89 C 897.70 326.43 888.07 405.01 878.29 483.57 C 866.05 580.12 854.17 676.71 842.20 773.28 C 723.11 839.10 604.06 904.96 485.00 970.82 C 485.02 851.73 484.95 732.64 485.02 613.55 C 573.68 613.54 662.34 613.57 750.99 613.54 C 757.80 613.92 763.76 607.71 763.39 600.95 C 763.38 579.97 763.43 558.99 763.37 538.01 C 763.38 531.60 757.52 525.86 751.07 526.21 C 662.39 526.15 573.71 526.20 485.02 526.18 C 484.92 493.82 484.99 461.47 485.01 429.11 C 573.35 429.09 661.68 429.12 750.01 429.09 C 756.84 429.73 763.57 424.03 763.37 417.03 C 763.41 396.01 763.40 374.97 763.37 353.95 C 763.60 347.33 757.58 341.48 750.99 341.74 C 662.32 341.69 573.65 341.74 484.98 341.72 C 484.98 244.92 485.06 148.11 484.95 51.31 Z" />
<!--
<path fill="none" d=" M 0.00 175.68 C 1.12 179.06 2.11 182.51 2.53 186.06 C 6.81 221.10 11.04 256.14 15.24 291.18 C 24.43 368.82 34.09 446.40 43.44 524.02 C 54.31 615.92 65.76 707.75 76.73 799.64 C 212.81 874.34 348.85 949.11 485.00 1023.68 C 621.15 949.12 757.18 874.33 893.27 799.65 C 895.98 776.12 898.92 752.61 901.77 729.09 C 915.83 614.71 929.27 500.25 943.37 385.88 C 951.13 322.20 958.59 258.49 966.41 194.82 C 967.23 188.58 967.47 182.13 970.00 176.26 L 970.00 1031.00 L 0.00 1031.00 L 0.00 175.68 Z" />
-->
<path fill="#b82a35" d=" M 236.36 334.45 C 250.85 331.98 266.37 335.95 277.71 345.36 C 287.28 352.95 293.75 364.13 296.14 376.06 C 298.80 391.31 294.64 407.74 284.47 419.51 C 274.86 431.00 260.04 437.95 245.04 437.82 C 232.84 437.97 220.70 433.42 211.43 425.53 C 198.84 415.03 191.82 398.28 193.15 381.94 C 193.73 372.24 197.46 362.93 203.03 355.03 C 210.93 344.21 223.12 336.64 236.36 334.45 Z" />
<path fill="#fffefe" d=" M 336.60 353.95 C 336.36 347.34 342.35 341.50 348.94 341.74 C 394.28 341.69 439.63 341.73 484.98 341.72 C 573.65 341.74 662.32 341.69 750.99 341.74 C 757.58 341.48 763.60 347.33 763.37 353.95 C 763.40 374.97 763.41 396.01 763.37 417.03 C 763.57 424.03 756.84 429.73 750.01 429.09 C 661.68 429.12 573.35 429.09 485.01 429.11 C 442.01 429.12 399.01 429.09 356.00 429.12 C 352.07 429.06 348.01 429.49 344.22 428.22 C 339.80 426.40 336.47 421.87 336.61 417.00 C 336.56 395.99 336.58 374.97 336.60 353.95 Z" />
<path fill="#e52a3a" d=" M 265.54 366.59 C 266.96 365.20 269.05 363.42 271.08 364.83 C 274.22 366.96 276.94 369.75 279.25 372.75 C 280.73 375.05 278.94 377.61 277.27 379.22 C 265.94 390.58 254.56 401.90 243.26 413.30 C 242.01 414.38 240.72 415.82 238.92 415.73 C 236.61 415.87 235.15 413.73 233.58 412.39 C 226.38 404.95 218.87 397.81 211.69 390.34 C 209.99 388.84 209.66 385.97 211.25 384.27 C 213.36 381.72 215.69 379.30 218.38 377.36 C 219.79 376.22 221.95 376.44 223.19 377.73 C 228.72 382.56 233.33 388.36 239.01 393.02 C 248.02 384.38 256.71 375.41 265.54 366.59 Z" />
<path fill="#b82a35" d=" M 239.41 518.47 C 251.24 517.28 263.49 519.94 273.40 526.61 C 288.37 536.29 297.97 554.14 296.81 572.06 C 296.43 587.16 288.92 601.78 277.08 611.11 C 268.39 618.22 257.20 621.83 246.06 622.29 C 232.97 622.51 219.82 617.69 210.13 608.86 C 199.07 598.84 192.53 583.92 193.03 568.98 C 193.25 553.33 201.13 538.04 213.68 528.70 C 221.08 522.99 230.10 519.37 239.41 518.47 Z" />
<path fill="#fffefe" d=" M 336.57 538.96 C 336.08 532.21 342.13 525.76 348.98 526.21 C 394.33 526.15 439.68 526.20 485.02 526.18 C 573.71 526.20 662.39 526.15 751.07 526.21 C 757.52 525.86 763.38 531.60 763.37 538.01 C 763.43 558.99 763.38 579.97 763.39 600.95 C 763.76 607.71 757.80 613.92 750.99 613.54 C 662.34 613.57 573.68 613.54 485.02 613.55 C 439.66 613.55 394.30 613.56 348.94 613.55 C 342.22 613.91 336.23 607.76 336.59 601.07 C 336.58 580.37 336.60 559.66 336.57 538.96 Z" />
<path fill="#e52a3a" d=" M 262.25 554.27 C 264.58 552.17 266.58 548.85 270.03 548.71 C 273.58 550.32 276.17 553.46 278.66 556.37 C 280.20 558.05 280.12 560.86 278.40 562.39 C 268.20 572.85 257.74 583.04 247.45 593.42 C 245.04 595.72 242.99 598.54 239.99 600.13 C 237.47 600.96 235.46 598.71 233.80 597.18 C 226.74 589.89 219.45 582.85 212.34 575.63 C 210.55 574.02 209.36 571.15 210.97 569.02 C 212.99 566.39 215.39 564.04 218.00 562.01 C 219.61 560.63 222.12 560.95 223.54 562.44 C 228.89 567.17 233.42 572.77 238.93 577.34 C 246.90 569.85 254.47 561.95 262.25 554.27 Z" />
</svg>
