<?xml version="1.0" encoding="UTF-8" ?>
<!DOCTYPE svg PUBLIC "-//W3C//DTD SVG 1.1//EN" "http://www.w3.org/Graphics/SVG/1.1/DTD/svg11.dtd">
<svg width="890pt" height="941pt" viewBox="0 0 890 941" version="1.1" xmlns="http://www.w3.org/2000/svg">
<path fill="#e52b3b" d=" M 442.41 0.00 L 447.59 0.00 C 595.01 52.12 742.30 104.64 889.74 156.72 C 866.51 349.45 843.04 542.16 819.79 734.90 C 792.83 749.96 765.64 764.59 738.63 779.54 C 640.72 833.10 542.97 886.97 445.01 940.43 C 390.53 910.84 336.28 880.81 281.86 851.10 C 211.35 812.32 140.70 773.79 70.23 734.93 C 46.96 542.19 23.48 349.46 0.28 156.70 C 3.88 155.57 7.45 154.36 10.98 153.00 C 154.79 102.01 298.57 50.92 442.41 0.00 Z" />
<path fill="#a71f2a" d=" M 198.36 245.50 C 216.50 243.27 235.45 248.05 250.28 258.76 C 265.18 269.20 276.11 285.28 280.07 303.06 C 283.89 319.05 282.04 336.24 275.28 351.19 C 268.10 366.98 255.24 380.06 239.64 387.62 C 224.32 394.94 206.50 397.00 189.96 393.04 C 171.68 389.00 155.27 377.47 144.85 361.96 C 133.11 345.03 129.24 323.03 133.92 303.02 C 137.44 287.58 146.07 273.39 158.13 263.12 C 169.35 253.35 183.58 247.15 198.36 245.50 Z" />
<path fill="#e7c5c0" d=" M 332.44 253.97 C 333.94 248.59 339.32 244.67 344.91 244.99 C 472.94 245.00 600.96 245.01 728.99 244.99 C 735.29 244.56 741.41 249.65 741.90 255.98 C 742.14 260.37 742.00 264.77 741.91 269.17 C 740.00 263.77 734.86 259.67 729.02 259.81 C 604.00 259.78 478.98 259.81 353.96 259.79 C 348.82 259.95 343.27 258.98 338.51 261.42 C 335.35 262.93 333.57 266.11 332.10 269.12 C 332.08 264.08 331.57 258.96 332.44 253.97 Z" />
<path fill="#ffffff" d=" M 338.51 261.42 C 343.27 258.98 348.82 259.95 353.96 259.79 C 478.98 259.81 604.00 259.78 729.02 259.81 C 734.86 259.67 740.00 263.77 741.91 269.17 C 742.11 306.78 741.96 344.41 741.98 382.02 C 742.43 389.07 736.08 395.41 729.04 394.98 C 601.04 395.03 473.03 394.99 345.02 395.00 C 337.95 395.44 331.58 389.09 332.02 382.02 C 332.04 344.39 331.88 306.75 332.10 269.12 C 333.57 266.11 335.35 262.93 338.51 261.42 Z" />
<path fill="#ffffff" d=" M 237.92 290.93 C 239.90 288.78 243.53 288.36 245.85 290.18 C 248.43 292.24 250.58 294.77 252.99 297.01 C 254.72 298.81 256.97 300.46 257.34 303.11 C 257.89 305.64 256.42 308.03 254.61 309.66 C 237.24 326.95 219.98 344.35 202.59 361.61 C 200.19 364.16 195.87 364.03 193.55 361.44 C 181.87 349.78 170.20 338.11 158.54 326.43 C 156.00 324.10 155.92 319.73 158.41 317.34 C 161.56 314.19 164.65 310.96 167.97 307.98 C 170.38 305.95 174.16 306.45 176.22 308.74 C 183.55 316.00 190.81 323.33 198.11 330.62 C 211.38 317.38 224.63 304.13 237.92 290.93 Z" />
<path fill="#a71f2a" d=" M 198.42 445.44 C 216.51 443.42 235.42 448.02 250.22 458.72 C 262.93 467.51 272.60 480.50 277.78 495.03 C 284.11 512.93 283.34 533.25 275.54 550.58 C 268.93 565.49 257.25 578.05 242.96 585.89 C 227.29 594.47 208.50 597.14 191.05 593.31 C 172.40 589.36 155.45 577.85 144.88 562.00 C 127.75 537.49 127.72 502.51 144.88 478.01 C 156.78 459.99 176.98 447.84 198.42 445.44 Z" />
<path fill="#e7c5c0" d=" M 332.63 453.38 C 334.35 448.26 339.58 444.67 344.99 444.99 C 473.01 445.00 601.03 445.01 729.04 444.99 C 735.31 444.58 741.38 449.64 741.89 455.93 C 742.15 460.33 742.01 464.75 741.90 469.16 C 739.95 463.80 734.83 459.63 728.97 459.81 C 600.98 459.79 472.98 459.78 344.99 459.82 C 339.15 459.66 333.98 463.75 332.09 469.15 C 332.15 463.91 331.42 458.52 332.63 453.38 Z" />
<path fill="#ffffff" d=" M 332.09 469.15 C 333.98 463.75 339.15 459.66 344.99 459.82 C 472.98 459.78 600.98 459.79 728.97 459.81 C 734.83 459.63 739.95 463.80 741.90 469.16 C 742.11 506.77 741.96 544.39 741.98 582.00 C 742.44 589.07 736.06 595.44 728.99 594.98 C 601.00 595.02 473.01 594.99 345.02 595.00 C 337.98 595.44 331.59 589.13 332.02 582.08 C 332.03 544.44 331.89 506.79 332.09 469.15 Z" />
<path fill="#ffffff" d=" M 237.42 491.39 C 238.65 490.18 240.15 489.01 241.99 489.07 C 244.96 488.69 247.02 491.13 248.93 492.99 C 251.36 495.55 254.09 497.82 256.33 500.56 C 258.22 503.20 257.55 507.02 255.14 509.10 C 237.62 526.60 220.15 544.17 202.58 561.62 C 200.15 564.18 195.82 564.02 193.50 561.40 C 181.85 549.75 170.19 538.10 158.55 526.44 C 156.03 524.14 155.90 519.82 158.33 517.42 C 161.32 514.38 164.34 511.37 167.43 508.44 C 169.78 505.99 173.99 506.21 176.21 508.73 C 183.54 515.99 190.81 523.32 198.11 530.61 C 211.21 517.54 224.33 504.48 237.42 491.39 Z" />
</svg>
