<?xml version="1.0" encoding="UTF-8" ?>
<!DOCTYPE svg PUBLIC "-//W3C//DTD SVG 1.1//EN" "http://www.w3.org/Graphics/SVG/1.1/DTD/svg11.dtd">
<svg width="1287pt" height="777pt" viewBox="0 0 1287 777" version="1.1" xmlns="http://www.w3.org/2000/svg">
<path fill="#ffffff" d=" M 0.00 0.00 L 1287.00 0.00 L 1287.00 777.00 L 1286.63 777.00 C 1079.57 569.85 872.37 362.84 665.29 155.71 C 650.72 141.28 636.41 126.59 621.66 112.35 C 621.62 112.02 621.56 111.35 621.53 111.02 C 522.94 76.20 424.44 41.13 325.88 6.22 C 320.88 4.39 315.79 2.82 310.92 0.68 C 285.03 10.33 258.85 19.20 232.86 28.57 C 155.22 56.04 77.67 83.71 0.00 111.07 L 0.00 0.00 Z" />
<path fill="#3e3f3a" d=" M 232.86 28.57 C 258.85 19.20 285.03 10.33 310.92 0.68 C 315.79 2.82 320.88 4.39 325.88 6.22 C 424.44 41.13 522.94 76.20 621.53 111.02 C 621.56 111.35 621.62 112.02 621.66 112.35 C 620.36 116.99 619.68 121.76 619.24 126.55 C 603.66 255.06 588.14 383.58 572.53 512.09 C 485.30 559.84 398.09 607.64 310.94 655.53 C 239.55 616.42 168.18 577.27 96.80 538.13 C 82.13 530.18 67.61 521.95 52.84 514.17 C 51.66 513.47 50.46 512.80 49.26 512.15 C 33.56 383.83 18.17 255.46 2.56 127.13 C 2.06 122.11 1.46 117.08 0.00 112.24 L 0.00 111.07 C 77.67 83.71 155.22 56.04 232.86 28.57 Z" />
<path fill="#e52a3a" d=" M 307.60 35.39 C 309.82 34.53 312.26 34.63 314.46 35.48 C 380.18 58.80 445.90 82.11 511.62 105.40 C 536.89 114.52 562.34 123.17 587.53 132.51 C 582.01 174.91 577.21 217.42 571.94 259.85 C 562.52 337.14 553.36 414.46 543.75 491.72 C 466.19 534.37 388.50 576.80 310.93 619.44 C 241.50 581.44 172.12 543.36 102.72 505.31 C 94.44 500.65 85.93 496.39 77.81 491.45 C 66.45 396.94 54.92 302.44 43.51 207.94 C 40.56 182.65 37.16 157.41 34.49 132.10 C 125.61 100.11 216.54 67.55 307.60 35.39 Z" />
<path fill="#ffffff" d=" M 0.00 112.24 C 1.46 117.08 2.06 122.11 2.56 127.13 C 18.17 255.46 33.56 383.83 49.26 512.15 C 50.46 512.80 51.66 513.47 52.84 514.17 C 53.91 515.72 54.90 517.35 56.16 518.77 C 142.18 604.87 228.39 690.80 314.33 777.00 L 0.00 777.00 L 0.00 112.24 Z" />
<path fill="#e5e5e5" d=" M 621.66 112.35 C 636.41 126.59 650.72 141.28 665.29 155.71 C 872.37 362.84 1079.57 569.85 1286.63 777.00 L 314.33 777.00 C 228.39 690.80 142.18 604.87 56.16 518.77 C 54.90 517.35 53.91 515.72 52.84 514.17 C 67.61 521.95 82.13 530.18 96.80 538.13 C 168.18 577.27 239.55 616.42 310.94 655.53 C 398.09 607.64 485.30 559.84 572.53 512.09 C 588.14 383.58 603.66 255.06 619.24 126.55 C 619.68 121.76 620.36 116.99 621.66 112.35 Z" />
<path fill="#a61e29" d=" M 157.41 187.45 C 168.39 186.20 179.84 188.77 188.98 195.06 C 198.77 201.67 205.92 212.10 208.43 223.66 C 211.56 237.30 208.02 252.29 199.12 263.09 C 190.91 273.39 178.14 279.79 164.99 280.32 C 154.08 280.82 143.03 277.35 134.41 270.63 C 123.16 262.07 116.24 248.12 116.26 233.98 C 116.15 223.15 120.01 212.31 126.98 204.01 C 134.50 194.86 145.61 188.71 157.41 187.45 Z" />
<path fill="#dfd7ca" d=" M 242.60 189.65 C 244.37 187.49 247.28 187.07 249.91 187.16 C 328.94 187.20 407.97 187.15 487.00 187.18 C 490.68 186.80 494.34 189.17 495.27 192.79 C 495.79 195.84 495.48 198.96 495.49 202.04 C 493.95 198.79 490.90 196.01 487.06 196.41 C 407.68 196.40 328.29 196.39 248.91 196.41 C 245.33 195.98 242.87 198.80 240.64 201.13 C 240.82 197.30 239.72 192.75 242.60 189.65 Z" />
<path fill="#ffffff" d=" M 240.64 201.13 C 242.87 198.80 245.33 195.98 248.91 196.41 C 328.29 196.39 407.68 196.40 487.06 196.41 C 490.90 196.01 493.95 198.79 495.49 202.04 C 495.59 225.37 495.51 248.70 495.53 272.03 C 495.80 275.85 492.91 279.62 489.11 280.21 C 486.05 280.48 482.98 280.29 479.92 280.33 C 402.93 280.33 325.94 280.32 248.96 280.33 C 244.37 280.79 240.16 276.55 240.63 271.96 C 240.63 248.35 240.62 224.74 240.64 201.13 Z" />
<path fill="#ffffff" d=" M 180.36 217.41 C 181.46 216.37 182.49 215.17 183.88 214.50 C 187.58 213.97 189.50 217.96 192.03 219.97 C 194.17 221.55 195.28 224.72 193.02 226.71 C 182.43 237.53 171.61 248.15 160.94 258.89 C 159.48 260.82 156.29 261.43 154.58 259.51 C 147.35 252.36 140.19 245.15 133.01 237.96 C 131.36 236.63 130.91 233.98 132.47 232.41 C 134.79 230.01 137.00 227.39 139.81 225.54 C 143.10 224.81 144.90 228.13 147.02 229.97 C 150.63 233.31 153.67 237.30 157.74 240.11 C 165.17 232.44 172.87 225.03 180.36 217.41 Z" />
<path fill="#dfd7ca" d=" M 240.75 317.98 C 241.27 314.11 245.07 311.03 248.98 311.40 C 328.34 311.40 407.71 311.40 487.07 311.40 C 490.80 311.06 494.44 313.75 495.34 317.36 C 495.70 320.25 495.49 323.18 495.56 326.09 C 493.65 323.12 490.86 320.32 486.99 320.76 C 410.66 320.72 334.31 320.76 257.98 320.74 C 254.32 320.77 250.65 320.49 247.02 320.96 C 244.32 321.26 242.56 323.56 240.64 325.21 C 240.63 322.80 240.50 320.38 240.75 317.98 Z" />
<path fill="#a61e29" d=" M 153.37 312.41 C 166.37 309.54 180.51 312.81 191.05 320.90 C 200.36 327.87 206.82 338.47 208.83 349.92 C 211.36 363.68 207.19 378.47 197.87 388.89 C 189.42 398.57 176.82 404.41 163.98 404.67 C 151.63 404.99 139.25 400.12 130.42 391.48 C 120.44 381.92 115.12 367.73 116.42 353.95 C 117.92 333.99 133.69 316.20 153.37 312.41 Z" />
<path fill="#ffffff" d=" M 240.64 325.21 C 242.56 323.56 244.32 321.26 247.02 320.96 C 250.65 320.49 254.32 320.77 257.98 320.74 C 334.31 320.76 410.66 320.72 486.99 320.76 C 490.86 320.32 493.65 323.12 495.56 326.09 C 495.49 349.69 495.58 373.29 495.51 396.89 C 495.69 401.33 491.43 405.10 487.07 404.67 C 407.71 404.67 328.34 404.67 248.98 404.67 C 244.68 405.08 240.54 401.32 240.66 396.97 C 240.60 373.05 240.63 349.13 240.64 325.21 Z" />
<path fill="#ffffff" d=" M 181.53 340.51 C 182.77 339.17 184.87 338.01 186.59 339.25 C 189.74 341.62 192.66 344.48 194.67 347.91 C 193.70 350.92 191.16 352.88 189.02 355.05 C 179.50 364.54 170.02 374.07 160.50 383.56 C 159.03 385.37 155.90 385.40 154.39 383.62 C 147.25 376.42 140.03 369.28 132.89 362.08 C 131.25 360.75 130.97 357.96 132.60 356.52 C 135.14 353.86 137.57 350.92 140.99 349.35 C 142.60 350.24 144.18 351.24 145.45 352.62 C 149.38 356.64 153.42 360.56 157.34 364.60 C 165.46 356.63 173.46 348.53 181.53 340.51 Z" />
</svg>
