<?xml version="1.0" encoding="UTF-8" ?>
<!DOCTYPE svg PUBLIC "-//W3C//DTD SVG 1.1//EN" "http://www.w3.org/Graphics/SVG/1.1/DTD/svg11.dtd">
<svg width="1283pt" height="779pt" viewBox="0 0 1283 779" version="1.1" xmlns="http://www.w3.org/2000/svg">
<path fill="#1baae3" d=" M 0.00 0.00 L 1283.00 0.00 L 1283.00 779.00 L 1282.86 779.00 C 1078.81 575.11 874.86 371.09 670.84 167.16 C 651.61 147.78 632.05 128.71 613.03 109.11 C 513.48 73.48 413.77 38.27 314.18 2.75 C 311.77 1.88 309.40 0.87 306.89 0.33 C 303.39 0.85 300.18 2.48 296.85 3.58 C 197.89 38.70 98.99 73.99 0.00 109.03 L 0.00 0.00 Z" />
<path fill="#e52a3a" d=" M 296.85 3.58 C 300.18 2.48 303.39 0.85 306.89 0.33 C 309.40 0.87 311.77 1.88 314.18 2.75 C 413.77 38.27 513.48 73.48 613.03 109.11 C 596.98 241.83 580.50 374.50 564.23 507.19 C 482.98 551.69 401.64 596.01 320.33 640.40 C 315.73 642.74 311.42 645.62 306.68 647.68 C 305.47 648.27 304.26 647.16 303.15 646.80 C 232.35 607.92 161.51 569.11 90.69 530.26 C 77.33 523.02 64.13 515.50 50.66 508.47 C 49.88 508.02 49.11 507.58 48.33 507.15 C 44.47 478.14 41.23 449.04 37.60 420.00 C 27.55 336.96 17.44 253.92 7.39 170.87 C 4.89 150.89 2.66 130.87 0.00 110.91 L 0.00 109.03 C 98.99 73.99 197.89 38.70 296.85 3.58 Z" />
<path fill="#1898cb" d=" M 613.03 109.11 C 632.05 128.71 651.61 147.78 670.84 167.16 C 874.86 371.09 1078.81 575.11 1282.86 779.00 L 320.32 779.00 C 235.41 694.15 150.52 609.29 65.66 524.39 C 60.62 519.11 54.89 514.47 50.66 508.47 C 64.13 515.50 77.33 523.02 90.69 530.26 C 161.51 569.11 232.35 607.92 303.15 646.80 C 304.26 647.16 305.47 648.27 306.68 647.68 C 311.42 645.62 315.73 642.74 320.33 640.40 C 401.64 596.01 482.98 551.69 564.23 507.19 C 580.50 374.50 596.98 241.83 613.03 109.11 Z" />
<path fill="#1baae3" d=" M 0.00 110.91 C 2.66 130.87 4.89 150.89 7.39 170.87 C 17.44 253.92 27.55 336.96 37.60 420.00 C 41.23 449.04 44.47 478.14 48.33 507.15 C 49.11 507.58 49.88 508.02 50.66 508.47 C 54.89 514.47 60.62 519.11 65.66 524.39 C 150.52 609.29 235.41 694.15 320.32 779.00 L 0.00 779.00 L 0.00 110.91 Z" />
<path fill="#e5e5e5" d=" M 231.69 171.70 C 235.05 168.63 239.88 169.65 244.01 169.50 C 328.33 169.51 412.66 169.52 496.98 169.49 C 500.80 169.56 505.24 168.83 508.33 171.68 C 512.14 175.05 511.12 180.64 511.28 185.18 C 508.61 182.24 505.27 179.51 501.01 180.05 C 413.31 180.08 325.61 180.01 237.93 180.09 C 234.00 179.72 231.20 182.62 228.74 185.20 C 228.91 180.67 227.89 175.08 231.69 171.70 Z" />
<path fill="#a81f2a" d=" M 132.37 170.43 C 145.82 167.69 160.36 170.53 171.67 178.34 C 182.23 185.46 190.01 196.61 192.90 209.03 C 196.74 224.43 192.86 241.50 182.74 253.72 C 173.03 265.83 157.56 273.08 142.04 272.77 C 128.99 272.74 116.10 267.35 106.75 258.28 C 98.49 250.40 93.00 239.66 91.45 228.34 C 89.45 214.74 93.22 200.42 101.67 189.58 C 109.17 179.79 120.26 172.83 132.37 170.43 Z" />
<path fill="#ffffff" d=" M 228.74 185.20 C 231.20 182.62 234.00 179.72 237.93 180.09 C 325.61 180.01 413.31 180.08 501.01 180.05 C 505.27 179.51 508.61 182.24 511.28 185.18 C 511.26 211.47 511.33 237.77 511.25 264.06 C 511.42 268.99 506.88 273.21 501.99 272.73 C 415.66 272.75 329.32 272.71 242.99 272.75 C 239.48 272.60 235.56 273.39 232.48 271.26 C 229.74 269.50 228.62 266.11 228.73 262.98 C 228.75 237.05 228.75 211.12 228.74 185.20 Z" />
<path fill="#ffffff" d=" M 163.00 201.97 C 164.17 200.85 165.62 200.11 167.00 199.31 C 170.92 201.36 173.99 204.69 176.78 208.05 C 178.40 210.14 176.85 212.67 175.20 214.17 C 163.50 225.82 151.84 237.51 140.15 249.18 C 138.58 251.20 135.21 251.56 133.44 249.62 C 125.88 242.18 118.47 234.58 110.89 227.16 C 109.31 225.77 108.24 223.97 107.39 222.07 C 109.37 218.59 112.34 215.84 115.31 213.22 C 116.93 211.60 119.94 211.70 121.46 213.42 C 125.88 217.69 130.12 222.14 134.51 226.46 C 135.26 227.09 136.38 228.65 137.40 227.46 C 146.02 219.06 154.46 210.46 163.00 201.97 Z" />
<path fill="#a81f2a" d=" M 135.42 307.64 C 146.35 306.16 157.76 308.12 167.42 313.53 C 180.18 320.36 189.73 332.89 192.95 347.01 C 196.77 362.61 192.64 379.91 182.21 392.12 C 173.08 403.11 159.20 409.95 144.93 410.49 C 130.51 411.21 115.91 405.50 105.86 395.13 C 94.21 383.57 88.75 366.20 91.70 350.06 C 95.07 328.41 113.72 310.43 135.42 307.64 Z" />
<path fill="#e5e5e5" d=" M 229.79 311.92 C 231.19 308.82 234.64 307.12 237.94 307.31 C 325.96 307.31 413.99 307.31 502.01 307.31 C 505.51 307.07 509.14 309.01 510.45 312.36 C 511.72 315.82 511.15 319.58 511.28 323.19 C 508.71 320.04 505.35 317.24 500.98 317.83 C 413.32 317.88 325.65 317.79 237.99 317.88 C 233.96 317.45 231.16 320.48 228.74 323.20 C 228.87 319.44 228.25 315.46 229.79 311.92 Z" />
<path fill="#ffffff" d=" M 228.74 323.20 C 231.16 320.48 233.96 317.45 237.99 317.88 C 325.65 317.79 413.32 317.88 500.98 317.83 C 505.35 317.24 508.71 320.04 511.28 323.19 C 511.26 349.47 511.33 375.75 511.25 402.04 C 511.30 406.84 506.88 410.89 502.11 410.51 C 414.05 410.51 325.99 410.50 237.93 410.51 C 234.72 410.65 231.39 409.05 229.89 406.14 C 228.35 403.34 228.78 400.05 228.73 397.00 C 228.77 372.40 228.74 347.80 228.74 323.20 Z" />
<path fill="#ffffff" d=" M 163.91 338.93 C 165.47 337.03 168.49 337.03 170.06 338.93 C 172.59 341.45 175.55 343.72 177.35 346.86 C 178.02 349.25 176.08 351.01 174.59 352.56 C 163.04 364.01 151.58 375.56 140.05 387.04 C 138.52 389.00 135.30 389.40 133.56 387.52 C 125.97 380.10 118.58 372.48 110.99 365.06 C 109.66 363.63 107.71 362.24 108.10 360.01 C 107.98 356.85 111.24 355.23 113.01 353.07 C 114.90 351.15 117.90 348.11 120.60 350.52 C 126.24 355.43 130.99 361.29 136.74 366.09 C 145.70 356.95 154.83 347.96 163.91 338.93 Z" />
</svg>
