<?xml version="1.0" encoding="UTF-8" ?>
<!DOCTYPE svg PUBLIC "-//W3C//DTD SVG 1.1//EN" "http://www.w3.org/Graphics/SVG/1.1/DTD/svg11.dtd">
<svg width="970pt" height="1031pt" viewBox="0 0 970 1031" version="1.1" xmlns="http://www.w3.org/2000/svg">
<path fill="#ffffff" d=" M 0.00 0.00 L 970.00 0.00 L 970.00 173.69 C 932.32 159.97 894.40 146.91 856.66 133.35 C 815.85 118.73 774.90 104.50 734.12 89.78 C 693.90 75.80 653.92 61.16 613.72 47.13 C 574.85 33.32 536.02 19.40 497.10 5.75 C 493.01 4.35 488.97 2.82 485.00 1.13 C 466.04 8.59 446.63 14.87 427.46 21.77 C 393.12 34.04 358.78 46.31 324.37 58.37 C 283.36 73.19 242.15 87.45 201.12 102.20 C 174.14 111.93 147.00 121.21 120.03 130.97 C 80.08 145.42 39.83 159.04 0.00 173.81 L 0.00 0.00 Z" />
<path fill="#b3b4b4" d=" M 427.46 21.77 C 446.63 14.87 466.04 8.59 485.00 1.13 C 488.97 2.82 493.01 4.35 497.10 5.75 C 536.02 19.40 574.85 33.32 613.72 47.13 C 653.92 61.16 693.90 75.80 734.12 89.78 C 774.90 104.50 815.85 118.73 856.66 133.35 C 894.40 146.91 932.32 159.97 970.00 173.69 L 970.00 176.20 C 967.16 183.49 966.96 191.38 965.90 199.03 C 957.31 269.31 949.09 339.64 940.45 409.91 C 926.08 526.94 912.30 644.05 897.88 761.08 C 896.31 773.94 894.75 786.80 893.27 799.67 C 757.18 874.34 621.15 949.13 485.00 1023.69 C 348.85 949.11 212.79 874.36 76.72 799.63 C 65.30 704.07 53.41 608.56 42.11 512.98 C 28.85 404.74 15.85 296.47 2.81 188.20 C 2.36 183.95 1.31 179.80 0.00 175.75 L 0.00 173.81 C 39.83 159.04 80.08 145.42 120.03 130.97 C 147.00 121.21 174.14 111.93 201.12 102.20 C 242.15 87.45 283.36 73.19 324.37 58.37 C 358.78 46.31 393.12 34.04 427.46 21.77 Z" />
<path fill="#e52a3a" d=" M 427.94 71.93 C 446.95 64.99 466.12 58.48 485.04 51.32 C 484.97 115.76 485.05 180.20 485.00 244.64 C 437.64 244.63 390.28 244.66 342.93 244.62 C 339.16 244.55 335.26 245.83 332.84 248.85 C 330.18 251.51 329.82 255.45 329.77 259.01 C 329.79 277.69 329.84 296.37 329.75 315.05 C 329.79 319.06 329.57 323.52 332.05 326.93 C 334.46 330.50 338.79 332.19 342.99 332.02 C 390.33 332.04 437.67 332.02 485.01 332.03 C 485.00 361.15 485.04 390.27 485.00 419.39 C 439.65 419.38 394.31 419.42 348.97 419.37 C 344.15 419.48 338.69 418.57 334.62 421.81 C 331.03 424.32 329.72 428.83 329.79 433.02 C 329.78 453.01 329.80 473.00 329.78 492.99 C 329.69 497.24 331.00 501.82 334.64 504.38 C 338.73 507.52 344.15 506.69 348.96 506.78 C 394.31 506.73 439.65 506.77 485.00 506.76 C 485.02 661.45 485.03 816.14 484.99 970.82 C 365.95 904.95 246.87 839.12 127.81 773.27 C 115.83 676.67 103.95 580.04 91.70 483.47 C 81.33 400.63 71.25 317.76 60.72 234.94 C 59.54 224.59 57.86 214.29 57.06 203.89 C 97.26 189.27 137.71 175.37 177.92 160.78 C 261.30 131.27 344.57 101.44 427.94 71.93 Z" />
<path fill="#b82934" d=" M 485.04 51.32 C 526.03 66.51 567.35 80.79 608.51 95.49 C 649.25 110.22 690.18 124.38 730.91 139.11 C 768.69 152.45 806.43 165.91 844.16 179.40 C 867.13 187.46 890.10 195.56 912.96 203.93 C 908.41 243.99 902.97 283.95 898.09 323.97 C 888.40 402.00 878.81 480.04 868.91 558.05 C 859.92 629.77 851.10 701.53 842.20 773.26 C 723.13 839.12 604.05 904.96 484.99 970.82 C 485.03 816.14 485.02 661.45 485.00 506.76 C 569.34 506.77 653.68 506.73 738.02 506.78 C 742.76 506.67 748.25 507.53 752.08 504.04 C 755.44 501.46 756.92 497.17 756.63 493.03 C 756.56 472.69 756.63 452.35 756.59 432.02 C 757.07 425.20 750.89 418.97 744.07 419.40 C 657.71 419.38 571.35 419.40 485.00 419.39 C 485.04 390.27 485.00 361.15 485.01 332.03 C 569.34 332.04 653.67 331.99 737.99 332.05 C 742.54 331.92 747.74 332.67 751.58 329.68 C 754.99 327.29 756.86 323.16 756.61 319.03 C 756.57 298.34 756.64 277.64 756.58 256.94 C 756.93 250.13 750.69 244.28 743.95 244.65 C 657.64 244.63 571.32 244.64 485.00 244.64 C 485.05 180.20 484.97 115.76 485.04 51.32 Z" />
<path fill="#ffffff" d=" M 0.00 175.75 C 1.31 179.80 2.36 183.95 2.81 188.20 C 15.85 296.47 28.85 404.74 42.11 512.98 C 53.41 608.56 65.30 704.07 76.72 799.63 C 212.79 874.36 348.85 949.11 485.00 1023.69 C 621.15 949.13 757.18 874.34 893.27 799.67 C 894.75 786.80 896.31 773.94 897.88 761.08 C 912.30 644.05 926.08 526.94 940.45 409.91 C 949.09 339.64 957.31 269.31 965.90 199.03 C 966.96 191.38 967.16 183.49 970.00 176.20 L 970.00 1031.00 L 0.00 1031.00 L 0.00 175.75 Z" />
<path fill="#8c131c" d=" M 250.19 245.12 C 262.75 243.06 276.16 246.88 285.73 255.29 C 295.07 263.42 300.94 275.62 300.75 288.07 C 301.07 299.81 296.02 311.47 287.59 319.59 C 279.57 327.58 268.27 332.17 256.95 332.05 C 244.72 332.14 232.62 326.65 224.51 317.53 C 216.50 308.81 212.43 296.71 213.44 284.93 C 214.55 265.27 230.72 247.87 250.19 245.12 Z" />
<path fill="#ffffff" d=" M 332.84 248.85 C 335.26 245.83 339.16 244.55 342.93 244.62 C 390.28 244.66 437.64 244.63 485.00 244.64 C 571.32 244.64 657.64 244.63 743.95 244.65 C 750.69 244.28 756.93 250.13 756.58 256.94 C 756.64 277.64 756.57 298.34 756.61 319.03 C 756.86 323.16 754.99 327.29 751.58 329.68 C 747.74 332.67 742.54 331.92 737.99 332.05 C 653.67 331.99 569.34 332.04 485.01 332.03 C 437.67 332.02 390.33 332.04 342.99 332.02 C 338.79 332.19 334.46 330.50 332.05 326.93 C 329.57 323.52 329.79 319.06 329.75 315.05 C 329.84 296.37 329.79 277.69 329.77 259.01 C 329.82 255.45 330.18 251.51 332.84 248.85 Z" />
<path fill="#e52a3a" d=" M 275.42 271.41 C 276.76 269.91 279.01 270.39 280.30 271.69 C 282.65 273.75 285.34 275.88 286.34 278.96 C 286.18 280.85 284.68 282.20 283.49 283.52 C 274.27 292.62 265.17 301.84 256.02 311.01 C 254.46 312.81 251.60 314.89 249.57 312.51 C 243.20 306.50 237.24 300.06 230.91 293.99 C 229.61 292.52 227.60 291.08 227.82 288.88 C 228.96 286.19 231.38 284.33 233.44 282.35 C 234.65 281.40 236.41 279.59 237.93 281.13 C 242.80 284.89 246.43 290.02 251.26 293.83 C 252.50 294.21 253.41 292.99 254.29 292.34 C 261.38 285.42 268.18 278.17 275.42 271.41 Z" />
<path fill="#ffffff" d=" M 334.62 421.81 C 338.69 418.57 344.15 419.48 348.97 419.37 C 394.31 419.42 439.65 419.38 485.00 419.39 C 571.35 419.40 657.71 419.38 744.07 419.40 C 750.89 418.97 757.07 425.20 756.59 432.02 C 756.63 452.35 756.56 472.69 756.63 493.03 C 756.92 497.17 755.44 501.46 752.08 504.04 C 748.25 507.53 742.76 506.67 738.02 506.78 C 653.68 506.73 569.34 506.77 485.00 506.76 C 439.65 506.77 394.31 506.73 348.96 506.78 C 344.15 506.69 338.73 507.52 334.64 504.38 C 331.00 501.82 329.69 497.24 329.78 492.99 C 329.80 473.00 329.78 453.01 329.79 433.02 C 329.72 428.83 331.03 424.32 334.62 421.81 Z" />
<path fill="#8c131c" d=" M 249.16 419.96 C 259.96 418.09 271.49 420.15 280.67 426.23 C 292.96 434.09 301.04 448.36 300.75 463.02 C 300.95 472.38 297.75 481.69 292.16 489.15 C 284.10 500.10 270.69 507.10 257.03 506.81 C 245.50 507.04 234.13 502.06 226.04 493.93 C 217.19 485.13 212.41 472.45 213.42 459.99 C 214.38 440.56 230.04 423.25 249.16 419.96 Z" />
<path fill="#e52a3a" d=" M 274.73 446.56 C 276.16 444.93 278.91 444.88 280.39 446.48 C 282.55 448.41 284.85 450.38 286.16 453.02 C 286.76 454.98 284.96 456.54 283.84 457.90 C 275.84 465.89 267.86 473.90 259.87 481.91 C 257.47 484.47 254.87 486.84 252.00 488.87 C 249.89 487.41 247.83 485.87 246.06 484.01 C 240.78 478.58 235.37 473.27 230.03 467.90 C 228.87 466.60 227.13 464.93 228.02 463.02 C 229.64 460.35 232.00 458.20 234.42 456.26 C 235.62 455.13 237.51 455.04 238.61 456.37 C 243.38 460.22 246.93 465.41 251.93 469.00 C 259.94 461.97 266.98 453.88 274.73 446.56 Z" />
<path fill="#ffffff" d=" M 330.11 586.72 C 341.96 584.06 354.47 585.29 365.88 589.30 C 364.38 597.59 361.78 605.62 360.03 613.86 C 353.61 612.80 346.10 610.38 340.17 614.19 C 334.02 619.19 335.55 627.92 335.37 634.90 C 342.10 634.90 348.82 634.85 355.55 634.94 C 355.52 643.65 355.50 652.36 355.56 661.07 C 348.82 661.20 342.09 661.10 335.36 661.14 C 335.37 690.24 335.35 719.35 335.37 748.45 C 324.13 748.55 312.90 748.48 301.67 748.49 C 301.67 719.37 301.66 690.26 301.67 661.14 C 296.62 661.13 291.57 661.13 286.52 661.13 C 286.50 652.91 286.52 644.69 286.50 636.48 C 291.53 636.06 296.55 635.59 301.59 635.30 C 301.38 624.26 302.03 612.61 307.71 602.83 C 312.38 594.51 320.89 588.79 330.11 586.72 Z" />
<path fill="#ffffff" d=" M 409.56 632.76 C 422.47 630.57 436.20 632.75 447.43 639.61 C 459.26 646.58 467.92 658.37 471.61 671.55 C 475.97 687.05 475.34 704.13 469.03 719.01 C 462.89 733.53 450.03 745.09 434.80 749.32 C 418.05 754.21 398.92 750.76 385.28 739.75 C 373.87 730.84 367.04 717.02 365.00 702.85 C 363.17 688.79 364.50 673.94 371.07 661.20 C 378.47 646.35 393.22 635.54 409.56 632.76 Z" />
<path fill="#b3b4b4" d=" M 530.73 650.91 C 536.25 641.81 545.22 634.23 555.92 632.39 C 561.86 631.70 568.28 631.67 573.74 634.48 C 573.26 644.10 570.09 653.40 569.02 662.98 C 562.72 662.07 556.12 660.33 549.89 662.54 C 540.92 665.70 534.23 673.98 531.68 682.95 C 531.37 704.78 531.65 726.64 531.55 748.49 C 520.46 748.50 509.37 748.47 498.29 748.50 C 498.03 734.33 498.46 720.16 497.96 705.99 C 498.32 699.32 498.39 692.64 497.98 685.97 C 498.20 679.33 498.39 672.68 497.92 666.05 C 497.37 659.02 498.65 652.01 498.21 644.99 C 497.99 641.64 497.85 638.30 497.94 634.95 C 507.13 634.89 516.33 634.79 525.52 635.01 C 526.39 641.45 526.94 647.92 527.86 654.36 C 528.72 653.12 529.96 652.21 530.73 650.91 Z" />
<path fill="#b3b4b4" d=" M 633.72 637.70 C 644.18 631.06 657.86 630.15 669.29 634.72 C 676.47 637.59 681.54 643.81 685.14 650.44 C 692.95 643.14 701.23 635.47 711.95 632.95 C 722.24 630.70 733.96 631.90 742.41 638.63 C 749.83 644.57 753.55 653.93 755.05 663.08 C 755.88 669.02 756.47 675.01 756.37 681.02 C 756.32 703.49 756.36 725.96 756.35 748.44 C 745.12 748.55 733.88 748.48 722.65 748.48 C 722.63 726.32 722.66 704.17 722.64 682.02 C 722.54 676.46 722.42 670.51 719.49 665.60 C 716.53 660.81 710.11 659.76 705.02 661.11 C 698.86 662.78 693.95 667.13 689.42 671.41 C 689.35 697.09 689.41 722.76 689.39 748.44 C 678.17 748.54 666.94 748.48 655.72 748.48 C 655.69 726.33 655.74 704.18 655.70 682.03 C 655.60 676.41 655.49 670.39 652.48 665.45 C 649.51 660.78 643.19 659.74 638.18 661.15 C 632.02 662.93 627.10 667.32 622.67 671.77 C 622.72 697.37 622.86 722.97 622.60 748.57 C 611.53 748.41 600.45 748.50 589.38 748.52 C 589.22 710.67 589.39 672.82 589.29 634.98 C 598.42 634.83 607.56 634.87 616.69 634.95 C 617.49 639.77 618.20 644.61 619.03 649.43 C 623.91 645.50 628.26 640.87 633.72 637.70 Z" />
<path fill="#e52a3a" d=" M 414.55 659.80 C 420.99 658.11 428.41 659.96 432.73 665.18 C 438.69 672.30 439.88 682.06 439.79 691.03 C 440.01 700.94 438.84 712.07 431.53 719.50 C 423.57 727.20 408.87 724.98 403.75 715.08 C 397.84 703.79 397.79 690.23 400.16 677.96 C 401.72 670.17 406.21 661.76 414.55 659.80 Z" />
<path fill="#8c131c" d=" M 202.87 673.21 C 216.56 664.46 233.66 659.67 249.78 663.36 C 258.23 665.19 265.42 671.32 268.70 679.31 C 273.92 691.86 272.03 705.76 272.39 718.99 C 272.11 728.65 272.95 738.38 272.01 748.00 C 265.46 748.81 258.72 748.69 252.16 748.10 C 251.07 745.46 250.55 742.64 249.92 739.88 C 244.39 743.65 239.00 748.02 232.31 749.50 C 223.98 751.66 214.24 750.21 207.78 744.23 C 199.57 736.59 197.54 723.41 202.45 713.44 C 205.18 707.99 210.28 704.19 215.68 701.67 C 225.63 696.97 236.67 695.56 247.44 694.02 C 246.83 689.49 244.81 684.39 240.00 682.97 C 230.11 680.12 220.25 684.73 211.67 689.30 C 208.25 684.21 205.78 678.59 202.87 673.21 Z" />
<path fill="#e52a3a" d=" M 227.57 715.49 C 233.27 711.40 240.44 710.00 247.30 709.46 C 247.41 714.34 247.38 719.23 247.30 724.12 C 244.01 727.05 240.47 730.18 235.94 730.82 C 232.19 731.29 227.62 731.07 225.06 727.89 C 222.20 723.99 223.70 718.14 227.57 715.49 Z" />
</svg>
