<?xml version="1.0" encoding="UTF-8" ?>
<!DOCTYPE svg PUBLIC "-//W3C//DTD SVG 1.1//EN" "http://www.w3.org/Graphics/SVG/1.1/DTD/svg11.dtd">
<svg width="970pt" height="1031pt" viewBox="0 0 970 1031" version="1.1" xmlns="http://www.w3.org/2000/svg">
<path fill="#b7b4b4" d=" M 420.33 24.28 C 441.86 16.48 463.69 9.48 485.00 1.09 C 492.88 4.54 501.14 7.04 509.20 10.03 C 543.90 22.12 578.44 34.66 613.09 46.90 C 653.76 61.11 694.22 75.89 734.91 90.05 C 775.16 104.59 815.59 118.63 855.88 133.07 C 893.88 146.71 932.06 159.87 970.00 173.68 L 970.00 175.39 C 968.23 180.83 967.26 186.47 966.74 192.16 C 958.65 258.32 950.88 324.52 942.80 390.68 C 929.31 500.11 916.46 609.61 903.01 719.05 C 899.74 745.92 896.41 772.79 893.27 799.68 C 757.17 874.34 621.16 949.15 485.00 1023.70 C 348.84 949.15 212.83 874.34 76.73 799.69 C 65.35 704.78 53.58 609.91 42.33 514.99 C 33.81 444.31 25.02 373.67 16.62 302.98 C 12.06 264.73 7.42 226.48 2.80 188.24 C 2.36 183.94 1.35 179.74 0.00 175.66 L 0.00 173.83 C 34.18 161.06 68.75 149.34 103.10 137.01 C 131.81 126.66 160.60 116.56 189.38 106.40 C 226.72 92.89 264.25 79.90 301.62 66.50 C 341.15 52.32 380.83 38.56 420.33 24.28 Z" />
<path fill="#e52b3a" d=" M 412.59 77.41 C 436.36 68.85 460.22 60.49 483.93 51.78 C 486.12 51.14 488.17 52.72 490.21 53.34 C 529.35 67.48 568.59 81.33 607.81 95.24 C 650.97 110.81 694.32 125.86 737.47 141.45 C 776.97 155.28 816.31 169.57 855.78 183.49 C 874.87 190.16 893.88 197.02 912.91 203.86 C 911.49 219.96 909.00 235.97 907.13 252.03 C 897.34 329.28 887.89 406.56 878.26 483.83 C 866.05 580.29 854.15 676.80 842.20 773.29 C 723.12 839.10 604.06 904.96 485.00 970.83 C 365.94 904.96 246.89 839.10 127.80 773.29 C 116.18 679.50 104.62 585.69 92.76 491.93 C 83.74 419.95 74.99 347.94 65.88 275.98 C 63.03 251.94 59.51 227.97 57.07 203.89 C 98.20 188.94 139.58 174.70 180.71 159.78 C 218.84 146.36 256.90 132.72 294.97 119.15 C 334.25 105.45 373.29 91.07 412.59 77.41 Z" />
<path fill="#a81e29" d=" M 245.39 292.66 C 262.50 290.60 280.29 294.77 294.56 304.49 C 309.19 314.17 320.01 329.39 324.49 346.35 C 329.12 363.70 327.08 382.78 318.68 398.67 C 312.31 411.01 302.29 421.40 290.24 428.27 C 274.90 437.18 256.24 440.01 238.92 436.28 C 221.52 432.54 205.56 422.23 195.20 407.74 C 186.02 395.19 181.03 379.62 181.35 364.06 C 181.42 348.86 186.61 333.80 195.69 321.64 C 207.37 305.73 225.80 295.00 245.39 292.66 Z" />
<path fill="#b7b4b4" d=" M 378.32 296.34 C 380.66 293.54 384.27 292.03 387.90 292.13 C 510.25 292.07 632.61 292.14 754.96 292.09 C 759.91 292.04 765.69 291.57 769.45 295.51 C 774.83 300.63 772.81 308.70 772.99 315.30 C 771.47 310.14 766.54 306.19 761.07 306.51 C 638.71 306.53 516.35 306.53 394.00 306.51 C 389.51 306.75 384.35 305.43 380.55 308.49 C 377.91 310.25 376.15 313.03 375.42 316.09 C 375.80 309.55 373.42 301.71 378.32 296.34 Z" />
<path fill="#ffffff" d=" M 380.55 308.49 C 384.35 305.43 389.51 306.75 394.00 306.51 C 516.35 306.53 638.71 306.53 761.07 306.51 C 766.54 306.19 771.47 310.14 772.99 315.30 C 773.25 351.52 773.02 387.75 773.11 423.98 C 773.33 428.46 771.74 433.31 767.76 435.76 C 764.05 438.45 759.28 437.75 754.99 437.84 C 632.62 437.82 510.25 437.84 387.87 437.83 C 382.28 438.21 377.68 434.02 375.58 429.16 C 375.16 391.48 375.47 353.78 375.42 316.09 C 376.15 313.03 377.91 310.25 380.55 308.49 Z" />
<path fill="#e52b3a" d=" M 285.73 335.75 C 290.12 333.35 293.67 337.75 296.46 340.50 C 298.88 343.34 303.20 345.66 302.78 349.94 C 303.02 352.37 301.07 354.05 299.56 355.64 C 283.20 371.92 266.90 388.27 250.61 404.61 C 248.72 406.93 245.35 407.54 242.68 406.34 C 240.70 404.99 239.15 403.15 237.47 401.48 C 227.55 391.42 217.43 381.54 207.52 371.48 C 205.10 369.34 204.54 365.25 206.88 362.85 C 209.67 359.63 212.76 356.68 215.91 353.84 C 218.04 351.67 221.95 351.72 224.01 353.95 C 231.21 360.94 238.13 368.22 245.32 375.22 C 254.25 367.25 262.30 358.34 270.95 350.06 C 275.98 345.40 280.32 339.96 285.73 335.75 Z" />
<path fill="#b7b4b4" d=" M 375.71 495.11 C 377.26 489.94 382.44 485.88 387.95 486.30 C 511.97 486.27 635.98 486.30 760.00 486.28 C 765.88 485.76 771.83 489.97 772.82 495.88 C 773.44 500.32 773.07 504.83 772.99 509.30 C 771.23 504.34 766.48 500.38 761.05 500.62 C 639.04 500.64 517.03 500.64 395.03 500.62 C 390.25 500.80 384.90 499.67 380.70 502.58 C 377.94 504.20 376.23 507.05 375.43 510.09 C 375.35 505.10 374.93 500.06 375.71 495.11 Z" />
<path fill="#a81e29" d=" M 241.30 487.44 C 254.45 485.09 268.25 486.40 280.68 491.31 C 295.24 497.07 307.92 507.56 316.06 520.96 C 326.00 536.87 329.31 556.70 325.19 574.99 C 321.19 593.30 309.77 609.86 294.06 620.08 C 283.36 627.10 270.80 631.27 258.01 631.90 C 242.07 632.82 225.93 628.19 212.80 619.12 C 200.87 610.97 191.59 599.09 186.29 585.67 C 178.89 566.88 179.77 544.97 188.87 526.91 C 198.88 506.52 218.87 491.30 241.30 487.44 Z" />
<path fill="#ffffff" d=" M 380.70 502.58 C 384.90 499.67 390.25 500.80 395.03 500.62 C 517.03 500.64 639.04 500.64 761.05 500.62 C 766.48 500.38 771.23 504.34 772.99 509.30 C 773.23 545.87 773.05 582.46 773.08 619.03 C 773.69 626.22 767.21 632.70 760.00 631.99 C 636.01 631.99 512.02 631.98 388.03 631.99 C 381.12 632.41 374.68 626.03 375.39 619.07 C 375.42 582.74 375.34 546.41 375.43 510.09 C 376.23 507.05 377.94 504.20 380.70 502.58 Z" />
<path fill="#e52b3a" d=" M 282.51 532.52 C 284.60 530.28 287.95 527.96 291.01 529.87 C 294.69 532.49 297.71 535.92 300.87 539.12 C 303.60 541.56 303.44 546.30 300.66 548.64 C 285.56 563.87 270.28 578.93 255.21 594.19 C 252.62 596.62 250.41 599.75 247.02 601.12 C 244.20 602.08 241.74 599.94 239.91 598.09 C 229.18 587.16 218.21 576.45 207.46 565.54 C 204.97 563.44 204.61 559.29 206.94 556.94 C 209.25 554.25 211.88 551.84 214.41 549.36 C 215.98 547.92 217.70 546.12 220.04 546.41 C 222.33 546.32 224.00 548.08 225.54 549.52 C 232.10 556.13 238.68 562.72 245.27 569.30 C 248.86 566.58 251.82 563.16 255.02 560.02 C 264.17 550.84 273.44 541.78 282.51 532.52 Z" />
</svg>
